<svg xmlns:xlink="http://www.w3.org/1999/xlink" xmlns="http://www.w3.org/2000/svg" height="27" width="27" class="icon icon--ui_download"><defs><symbol viewBox="0 0 28 28" id="ui_download"><path d="M3.5 19.379a1.5 1.5 0 00-3 0v6.62A1.5 1.5 0 002 27.5h24a1.5 1.5 0 001.5-1.5v-6.62a1.5 1.5 0 00-3 0v5.12h-21v-5.12zm12-17.387a1.5 1.5 0 10-3 .013l.06 14.524-6.527-6.208a1.5 1.5 0 00-2.067 2.174l9.076 8.632a1.5 1.5 0 002.075-.008l8.924-8.616a1.5 1.5 0 10-2.084-2.158l-6.396 6.176L15.5 1.992z"></path></symbol></defs><use xlink:href="#ui_download" fill="#FFFFFF"></use></svg>